<?xml version="1.0" encoding="UTF-8"?>
<svg width="60px" height="60px" viewBox="0 0 60 60" version="1.1" xmlns="http://www.w3.org/2000/svg" xmlns:xlink="http://www.w3.org/1999/xlink">
    <!-- Generator: Sketch 42 (36781) - http://www.bohemiancoding.com/sketch -->
    <title>Photoshop_Color</title>
    <desc>Created with Sketch.</desc>
    <defs></defs>
    <g id="Page-1" stroke="none" stroke-width="1" fill="none" fill-rule="evenodd">
        <g id="Social_icons" transform="translate(-60.000000, -1469.000000)">
            <g id="Color" transform="translate(60.000000, 169.000000)">
                <g id="Photoshop" transform="translate(0.000000, 1300.000000)">
                    <path d="M0,30 C0,13.4314567 13.4314567,0 30,0 C46.5685433,0 60,13.4314567 60,30 C60,46.5685433 46.5685433,60 30,60 C13.4314567,60 0,46.5685433 0,30 Z" id="back" fill="#0E0E17"></path>
                    <g id="Ps" transform="translate(15.000000, 17.000000)" fill="#31C5F0">
                        <path d="M24.7651277,10.2748994 C22.9176081,10.2748994 22.3017682,11.2160535 22.3017682,12.0003486 C22.3017682,12.8630732 22.7251581,13.4510568 25.1887509,14.7453814 C28.8453002,16.5492601 30,18.2747093 30,20.8234306 C30,24.6274994 27.1517405,26.6666667 23.3027413,26.6666667 C21.2627717,26.6666667 19.5265231,26.2350667 18.5257833,25.6470831 C18.3718233,25.5686535 18.3333333,25.4510093 18.3333333,25.2549355 L18.3333333,21.7648224 C18.3333333,21.5295339 18.4488033,21.4511044 18.6027633,21.5685109 C20.065383,22.5486421 21.7629083,22.9802421 23.3027413,22.9802421 C25.1502609,22.9802421 25.9200608,22.195947 25.9200608,21.1371487 C25.9200608,20.2744241 25.3812009,19.5291061 23.0333113,18.2744716 C19.723172,16.666429 18.3375322,15.0194093 18.3375322,12.2746142 C18.3375322,9.21586336 20.6854218,6.66666667 24.7651277,6.66666667 C26.7666073,6.66666667 28.1797733,6.9803847 28.9495731,7.33307982 C29.1420231,7.45096175 29.1805131,7.64679786 29.1805131,7.80365687 L29.1805131,11.0591945 C29.1805131,11.2550306 29.0650431,11.3729125 28.8341031,11.294483 C27.7951066,10.6670469 26.2664707,10.2748994 24.7651277,10.2748994 L24.7651277,10.2748994 Z" id="Path"></path>
                        <path d="M0,0.386235955 C0,0.231741573 0.336712355,0.115870787 0.533028745,0.115870787 C2.06429659,0.0386235955 4.31253569,1.77635684e-15 6.66809442,1.77635684e-15 C13.2643251,1.77635684e-15 15.8333333,3.55337079 15.8333333,8.11095506 C15.8333333,14.0589888 11.4482201,16.6081461 6.06915096,16.6081461 C5.16609556,16.6081461 4.85198934,16.5692884 4.22377689,16.5692884 L4.22377689,25.5627341 C4.22377689,25.7560861 4.14525033,25.8333333 3.94893394,25.8333333 L0.274842947,25.8333333 C0.0785265563,25.8333333 3.38160449e-15,25.7560861 3.38160449e-15,25.5627341 L3.38160449e-15,0.386235955 L0,0.386235955 Z M6.14767752,12.8614232 C8.93537026,12.8614232 11.553636,11.8958333 11.553636,8.18796816 C11.553636,5.21371723 9.68137255,3.70763109 6.50104702,3.70763109 C5.55872835,3.70763109 4.65567295,3.7460206 4.22377689,3.78487828 L4.22377689,12.8227996 C4.77346278,12.8614232 5.20535884,12.8614232 6.14767752,12.8614232 Z" id="Combined-Shape"></path>
                    </g>
                </g>
            </g>
        </g>
    </g>
</svg>